<?xml version="1.0" encoding="utf-8"?>
<svg xmlns="http://www.w3.org/2000/svg" height="512pt" version="1.1" viewBox="0 0 512 512" width="512pt">
<path d="M 0.00 0.00 L 512.00 0.00 L 512.00 512.00 L 0.00 512.00 L 0.00 0.00 Z" fill="transparent" opacity="1.00" stroke="transparent" stroke-width="0.25"/>
<path d="M 184.64 106.64 C 198.34 99.40 212.89 93.50 228.05 90.18 C 223.13 100.02 217.14 109.28 212.00 119.00 C 210.36 121.96 209.30 125.29 207.18 127.96 C 204.72 130.37 202.36 132.87 200.24 135.58 C 199.14 135.10 198.06 134.61 196.97 134.14 C 194.81 134.96 192.60 136.13 190.20 135.75 C 185.48 135.13 180.72 134.86 175.95 134.92 C 170.58 134.95 166.42 131.13 162.01 128.62 C 164.39 121.06 172.69 118.31 176.73 111.90 C 178.85 109.48 181.91 108.21 184.64 106.64 Z" fill="#b12ab7" opacity="1.00" stroke="#b12ab7" stroke-width="0.25"/>
<path d="M 156.73 126.72 C 162.92 121.21 169.28 115.64 176.73 111.90 C 172.69 118.31 164.39 121.06 162.01 128.62 C 166.42 131.13 170.58 134.95 175.95 134.92 C 180.72 134.86 185.48 135.13 190.20 135.75 C 192.60 136.13 194.81 134.96 196.97 134.14 C 198.06 134.61 199.14 135.10 200.24 135.58 C 202.36 132.87 204.72 130.37 207.18 127.96 C 206.73 129.98 206.12 132.02 204.76 133.63 C 198.33 141.66 198.40 152.61 194.79 161.86 C 191.99 165.43 186.95 164.69 182.95 165.05 C 177.98 165.08 173.01 167.95 168.13 165.79 C 160.42 162.75 152.12 164.29 144.10 164.27 C 139.50 164.42 136.03 161.11 132.61 158.53 C 135.75 149.68 143.92 144.09 147.99 135.78 C 150.24 132.19 153.68 129.59 156.73 126.72 Z" fill="#a62fba" opacity="1.00" stroke="#a62fba" stroke-width="0.25"/>
<path d="M 194.79 161.86 C 198.40 152.61 198.33 141.66 204.76 133.63 C 203.38 139.45 200.95 144.96 199.66 150.81 C 198.08 156.50 197.57 162.40 196.39 168.18 C 196.05 167.06 195.70 165.96 195.32 164.86 C 193.96 171.48 194.77 178.41 192.91 184.92 C 191.20 189.49 185.62 188.36 181.77 188.61 C 172.84 189.42 163.94 188.01 155.00 188.23 C 148.25 188.43 141.70 185.84 134.93 186.78 C 129.22 187.60 123.62 184.51 117.97 186.33 C 119.63 182.67 120.84 178.83 122.07 175.00 C 123.50 170.36 126.62 166.38 127.34 161.50 C 128.44 157.43 131.69 154.44 134.02 151.05 C 138.41 145.74 142.38 139.89 147.99 135.78 C 143.92 144.09 135.75 149.68 132.61 158.53 C 136.03 161.11 139.50 164.42 144.10 164.27 C 152.12 164.29 160.42 162.75 168.13 165.79 C 173.01 167.95 177.98 165.08 182.95 165.05 C 186.95 164.69 191.99 165.43 194.79 161.86 Z" fill="#9837bb" opacity="1.00" stroke="#9837bb" stroke-width="0.25"/>
<path d="M 118.62 176.79 C 120.36 171.20 123.45 165.89 127.34 161.50 C 126.62 166.38 123.50 170.36 122.07 175.00 C 120.84 178.83 119.63 182.67 117.97 186.33 C 123.62 184.51 129.22 187.60 134.93 186.78 C 141.70 185.84 148.25 188.43 155.00 188.23 C 163.94 188.01 172.84 189.42 181.77 188.61 C 185.62 188.36 191.20 189.49 192.91 184.92 C 194.77 178.41 193.96 171.48 195.32 164.86 C 195.70 165.96 196.05 167.06 196.39 168.18 C 196.14 174.66 196.53 181.21 195.86 187.66 C 193.27 196.20 197.45 204.58 197.39 213.13 C 195.90 211.69 194.41 210.25 192.93 208.81 C 189.32 209.63 185.62 209.89 181.93 210.08 C 176.53 210.32 171.38 212.79 165.92 212.11 C 162.17 211.94 159.84 208.02 156.08 207.92 C 147.45 207.43 138.89 209.88 130.26 208.74 C 123.29 208.43 116.94 205.38 110.36 203.45 C 112.10 197.60 113.69 191.68 116.08 186.05 C 117.38 183.11 118.16 179.97 118.62 176.79 Z" fill="#8f39bb" opacity="1.00" stroke="#8f39bb" stroke-width="0.25"/>
<path d="M 118.62 176.79 C 118.16 179.97 117.38 183.11 116.08 186.05 C 113.69 191.68 112.10 197.60 110.36 203.45 C 116.94 205.38 123.29 208.43 130.26 208.74 C 138.89 209.88 147.45 207.43 156.08 207.92 C 159.84 208.02 162.17 211.94 165.92 212.11 C 171.38 212.79 176.53 210.32 181.93 210.08 C 185.62 209.89 189.32 209.63 192.93 208.81 C 194.41 210.25 195.90 211.69 197.39 213.13 C 197.45 204.58 193.27 196.20 195.86 187.66 C 197.05 195.03 198.29 202.40 199.52 209.75 C 199.01 215.27 202.18 220.15 202.53 225.51 C 201.54 228.75 198.04 230.53 195.58 232.66 C 188.76 230.87 181.67 231.02 174.69 230.42 C 168.92 229.86 163.18 231.83 157.44 230.73 C 148.71 229.15 139.72 231.07 131.05 228.96 C 125.76 228.10 120.88 225.14 115.45 225.19 C 114.04 226.58 112.89 228.20 111.68 229.77 C 109.55 227.27 105.90 225.00 106.41 221.28 C 107.05 216.78 107.99 212.29 107.46 207.72 C 107.46 203.77 109.13 200.06 110.27 196.34 C 112.71 189.70 114.53 182.67 118.62 176.79 Z" fill="#843eb8" opacity="1.00" stroke="#843eb8" stroke-width="0.25"/>
<path d="M 107.46 207.72 C 107.99 212.29 107.05 216.78 106.41 221.28 C 105.90 225.00 109.55 227.27 111.68 229.77 C 112.89 228.20 114.04 226.58 115.45 225.19 C 120.88 225.14 125.76 228.10 131.05 228.96 C 139.72 231.07 148.71 229.15 157.44 230.73 C 163.18 231.83 168.92 229.86 174.69 230.42 C 181.67 231.02 188.76 230.87 195.58 232.66 C 198.04 230.53 201.54 228.75 202.53 225.51 C 202.18 220.15 199.01 215.27 199.52 209.75 C 201.77 214.87 203.09 220.35 205.59 225.37 C 210.00 235.35 216.12 244.50 223.22 252.77 C 225.96 256.31 229.50 259.18 232.07 262.85 C 233.16 265.02 234.12 267.26 235.13 269.48 C 227.20 272.50 218.45 272.53 210.13 271.64 C 200.30 269.43 190.11 269.55 180.13 270.35 C 170.49 272.60 160.56 272.04 150.75 272.52 C 138.65 271.66 126.49 272.52 114.43 271.02 C 113.30 273.06 112.16 275.10 110.98 277.12 C 110.39 274.62 109.56 271.85 111.46 269.69 C 107.28 265.72 105.79 260.06 103.66 254.91 C 102.35 250.41 102.81 245.64 102.72 241.01 C 103.05 229.82 103.87 218.40 107.46 207.72 Z" fill="#7743b7" opacity="1.00" stroke="#7743b7" stroke-width="0.25"/>
<path d="M 103.66 254.91 C 105.79 260.06 107.28 265.72 111.46 269.69 C 109.56 271.85 110.39 274.62 110.98 277.12 C 112.16 275.10 113.30 273.06 114.43 271.02 C 126.49 272.52 138.65 271.66 150.75 272.52 C 160.56 272.04 170.49 272.60 180.13 270.35 C 190.11 269.55 200.30 269.43 210.13 271.64 C 218.45 272.53 227.20 272.50 235.13 269.48 C 234.12 267.26 233.16 265.02 232.07 262.85 C 237.98 267.30 243.41 272.38 249.80 276.17 C 272.68 290.53 300.00 298.07 327.03 296.51 C 342.36 295.39 357.57 291.85 371.69 285.72 C 385.74 279.89 398.21 270.98 410.38 261.99 C 410.09 269.50 407.55 276.69 405.73 283.93 C 402.06 296.68 396.48 308.87 389.53 320.16 C 389.72 317.52 388.69 315.07 387.64 312.72 C 386.36 313.91 385.09 315.10 383.82 316.31 C 374.09 317.14 364.79 312.54 355.06 314.03 C 351.96 314.05 352.05 318.23 350.93 320.36 C 346.09 321.43 341.12 321.18 336.39 319.74 C 328.01 317.12 319.44 320.28 310.95 320.11 C 305.72 320.15 301.22 316.65 296.00 316.71 C 291.12 316.68 286.90 319.71 282.08 320.01 C 278.61 320.23 275.14 319.99 271.68 319.91 C 271.66 318.64 271.64 317.38 271.62 316.12 C 265.28 316.13 258.89 316.21 252.72 314.52 C 241.22 313.06 229.57 313.18 218.03 312.08 C 207.02 311.76 196.00 311.99 184.99 312.05 C 177.88 312.14 171.09 309.02 163.93 309.98 C 152.10 311.23 140.15 309.61 128.36 311.40 C 125.78 311.72 123.60 313.24 121.41 314.52 C 114.01 300.50 108.15 285.54 105.31 269.90 C 104.44 264.95 103.39 259.97 103.66 254.91 Z" fill="#6749b5" opacity="1.00" stroke="#6749b5" stroke-width="0.25"/>
<path d="M 128.36 311.40 C 140.15 309.61 152.10 311.23 163.93 309.98 C 171.09 309.02 177.88 312.14 184.99 312.05 C 196.00 311.99 207.02 311.76 218.03 312.08 C 229.57 313.18 241.22 313.06 252.72 314.52 C 258.89 316.21 265.28 316.13 271.62 316.12 C 271.64 317.38 271.66 318.64 271.68 319.91 C 275.14 319.99 278.61 320.23 282.08 320.01 C 286.90 319.71 291.12 316.68 296.00 316.71 C 301.22 316.65 305.72 320.15 310.95 320.11 C 319.44 320.28 328.01 317.12 336.39 319.74 C 341.12 321.18 346.09 321.43 350.93 320.36 C 352.05 318.23 351.96 314.05 355.06 314.03 C 364.79 312.54 374.09 317.14 383.82 316.31 C 385.09 315.10 386.36 313.91 387.64 312.72 C 388.69 315.07 389.72 317.52 389.53 320.16 C 386.85 324.81 383.52 329.04 380.40 333.40 C 377.18 337.52 374.19 341.94 370.02 345.17 C 372.56 338.93 378.97 334.69 379.77 327.74 C 377.93 329.04 376.07 330.31 374.27 331.66 C 374.27 330.25 374.27 328.85 374.27 327.45 C 373.72 327.31 372.61 327.04 372.05 326.90 C 369.72 328.95 367.44 331.15 364.66 332.60 C 360.20 333.89 355.10 333.58 351.28 330.74 C 348.33 328.57 344.52 328.56 341.05 329.10 C 337.80 329.78 335.20 332.16 331.99 332.94 C 329.00 333.32 325.98 333.03 322.99 332.94 C 314.33 332.44 305.67 333.27 297.00 332.93 C 293.13 332.76 289.35 333.67 285.57 334.37 C 281.23 335.25 276.86 334.09 272.57 333.52 C 271.88 332.10 271.19 330.68 270.50 329.27 C 263.34 329.08 256.17 328.80 249.07 327.73 C 243.32 326.84 237.75 329.20 232.01 329.11 C 222.00 328.97 211.99 329.12 201.99 328.94 C 197.93 328.84 194.00 330.00 189.97 330.26 C 186.28 329.87 183.38 326.88 179.67 326.50 C 175.53 326.85 171.48 328.41 167.28 327.72 C 160.88 326.73 154.42 327.19 147.98 327.00 C 142.72 327.29 141.01 320.63 136.12 319.96 C 133.52 321.57 130.93 325.13 132.81 328.16 C 135.70 333.26 139.87 337.58 141.97 343.15 C 133.38 335.04 127.41 324.59 121.41 314.52 C 123.60 313.24 125.78 311.72 128.36 311.40 Z" fill="#5c4bb7" opacity="1.00" stroke="#5c4bb7" stroke-width="0.25"/>
<path d="M 132.81 328.16 C 130.93 325.13 133.52 321.57 136.12 319.96 C 141.01 320.63 142.72 327.29 147.98 327.00 C 154.42 327.19 160.88 326.73 167.28 327.72 C 171.48 328.41 175.53 326.85 179.67 326.50 C 183.38 326.88 186.28 329.87 189.97 330.26 C 194.00 330.00 197.93 328.84 201.99 328.94 C 211.99 329.12 222.00 328.97 232.01 329.11 C 237.75 329.20 243.32 326.84 249.07 327.73 C 256.17 328.80 263.34 329.08 270.50 329.27 C 271.19 330.68 271.88 332.10 272.57 333.52 C 276.86 334.09 281.23 335.25 285.57 334.37 C 289.35 333.67 293.13 332.76 297.00 332.93 C 305.67 333.27 314.33 332.44 322.99 332.94 C 325.98 333.03 329.00 333.32 331.99 332.94 C 335.20 332.16 337.80 329.78 341.05 329.10 C 344.52 328.56 348.33 328.57 351.28 330.74 C 355.10 333.58 360.20 333.89 364.66 332.60 C 367.44 331.15 369.72 328.95 372.05 326.90 C 372.61 327.04 373.72 327.31 374.27 327.45 C 374.27 328.85 374.27 330.25 374.27 331.66 C 376.07 330.31 377.93 329.04 379.77 327.74 C 378.97 334.69 372.56 338.93 370.02 345.17 C 369.00 347.02 367.55 348.57 366.08 350.07 C 347.17 369.34 323.35 384.12 297.22 391.23 C 280.54 395.53 263.14 397.17 245.97 395.78 C 215.07 394.55 185.43 381.68 161.37 362.63 C 156.02 358.35 151.24 353.42 146.39 348.60 C 144.77 346.91 143.04 345.25 141.97 343.15 C 139.87 337.58 135.70 333.26 132.81 328.16 Z" fill="#514ebc" opacity="1.00" stroke="#514ebc" stroke-width="0.25"/>
</svg>